<svg width="3319" height="487" viewBox="0 0 3319 487" fill="none" xmlns="http://www.w3.org/2000/svg">
<path d="M3162.79 374.569C3088.74 374.569 3078.64 376.973 3078.64 342.353C3078.64 329.852 3081.04 320.716 3094.51 313.023C3107.49 306.291 3110.86 301.963 3111.82 286.096C3113.26 263.016 3113.26 223.588 3113.26 209.643C3113.26 195.699 3109.41 194.257 3095.95 192.814C3079.12 190.891 3069.02 188.487 3069.02 173.581C3069.02 157.233 3081.04 142.327 3095.95 131.268C3110.86 119.728 3131.53 112.996 3152.69 112.996C3175.29 112.996 3188.75 122.132 3189.71 141.365C3190.19 150.501 3190.19 153.867 3196.44 153.867C3202.21 153.867 3206.54 147.616 3214.24 137.518C3226.74 122.132 3240.2 111.073 3263.28 111.073C3303.19 111.073 3319.06 138.961 3318.58 176.947C3318.58 212.528 3304.63 231.281 3273.38 231.281C3250.3 231.281 3239.72 221.664 3231.06 209.643C3225.29 200.508 3221.45 192.814 3213.27 192.814C3203.18 192.814 3203.66 201.469 3203.66 214.452C3203.18 228.877 3203.66 259.169 3204.62 285.134C3205.1 299.078 3206.54 302.925 3224.33 310.618C3241.64 317.831 3245.97 323.12 3245.97 339.949C3245.97 371.684 3239.72 374.569 3162.79 374.569Z" fill="black"/>
<path d="M2928.21 381.301C2845.03 381.301 2787.81 328.409 2787.81 253.399C2787.81 174.543 2840.7 111.553 2929.66 111.553C3001.3 111.553 3054.19 156.752 3054.19 232.723C3054.19 262.054 3048.42 265.42 3009.96 265.42H2891.19C2885.9 265.42 2883.02 266.863 2883.02 272.633C2882.54 293.789 2913.79 308.214 2953.22 308.214C2981.59 308.214 2998.9 302.444 3011.4 298.117C3017.65 295.713 3024.38 293.789 3028.71 293.789C3039.77 293.789 3041.69 306.291 3038.33 320.235C3029.19 358.702 2983.99 381.301 2928.21 381.301ZM2898.88 219.741C2952.74 219.741 2957.55 218.779 2957.06 210.124C2957.06 188.968 2939.27 171.177 2916.68 171.658C2896 171.658 2882.54 189.448 2883.5 213.49C2883.5 219.26 2886.38 219.741 2898.88 219.741Z" fill="black"/>
<path d="M2628.58 379.378C2597.8 379.378 2588.67 375.05 2575.69 344.277C2561.26 312.542 2525.68 236.57 2516.06 211.086C2507.89 193.295 2504.04 188.968 2495.39 183.198C2487.21 177.908 2483.85 174.543 2483.85 151.943C2483.85 122.613 2493.46 118.285 2565.11 118.285C2628.1 118.285 2636.75 124.055 2636.75 150.02C2636.75 165.888 2635.31 168.773 2623.29 176.466C2615.11 181.755 2614.15 185.602 2618.48 198.103C2626.17 220.222 2630.02 227.434 2643.96 270.228C2647.33 279.845 2647.33 283.692 2651.66 283.692C2656.95 283.692 2657.91 277.441 2660.79 268.305C2671.85 239.455 2677.14 231.281 2687.24 201.95C2692.05 188.968 2688.68 182.717 2675.7 175.985C2663.68 169.734 2661.27 165.888 2661.27 149.539C2661.27 124.536 2668 118.766 2730.03 118.766C2773.79 118.766 2778.6 125.017 2778.6 149.058C2778.6 163.964 2776.67 169.253 2766.09 178.87C2757.44 187.525 2754.07 191.372 2748.3 206.278C2729.07 251.476 2720.42 264.939 2689.64 346.681C2679.06 373.127 2673.77 379.378 2647.33 379.378H2628.58Z" fill="black"/>
<path d="M2400.02 98.09C2362.52 98.09 2336.55 78.3758 2336.55 51.4492C2336.55 21.6375 2360.59 0 2396.66 0C2434.64 0 2458.2 21.1567 2458.2 50.0067C2458.2 77.895 2436.09 98.09 2400.02 98.09ZM2398.1 374.569C2332.23 374.569 2320.69 374.569 2320.69 342.353C2320.69 326.486 2322.61 318.312 2335.11 310.138C2349.54 301.483 2351.94 297.155 2352.9 283.692C2353.86 264.939 2352.9 238.974 2352.9 205.797C2352.9 191.372 2350.02 189.929 2339.44 188.968C2324.05 187.525 2317.8 182.236 2317.8 170.696C2317.8 156.271 2328.38 142.808 2345.21 132.229C2363 120.689 2380.79 114.919 2402.43 114.919C2438.97 114.919 2452.92 127.902 2452.92 153.386C2452.92 177.428 2446.18 198.584 2446.18 227.915C2446.18 244.744 2445.7 263.016 2447.63 285.134C2448.59 298.117 2449.55 301.963 2459.17 309.657C2469.26 316.869 2472.63 321.677 2472.63 342.834C2472.63 369.28 2464.46 374.569 2398.1 374.569Z" fill="black"/>
<path d="M2232.4 376.012C2182.4 376.012 2161.72 355.817 2142.97 289.943C2131.91 250.995 2124.22 245.225 2103.06 245.225C2092.48 245.225 2091.52 247.629 2091.52 268.786C2091.52 293.308 2093.92 297.636 2105.94 305.329C2123.74 315.427 2124.7 322.158 2124.22 340.911C2123.25 366.876 2114.12 374.088 2039.11 374.088C1967.95 374.088 1956.41 370.723 1955.44 338.026C1954.96 318.312 1957.37 314.465 1979 302.444C1991.03 295.713 1992.47 293.308 1993.91 271.671C1996.31 234.166 1995.83 181.274 1994.39 150.501C1993.43 127.902 1993.43 124.536 1980.93 118.766C1960.73 110.592 1954.96 108.668 1954.96 87.0309C1954.96 53.3726 1961.69 46.6409 2004.49 47.6025C2034.3 48.0834 2103.54 48.0834 2154.99 48.0834C2229.04 48.0834 2277.6 70.6825 2277.6 135.595C2277.6 171.177 2254.04 200.027 2219.9 213.009C2213.17 215.894 2210.77 217.818 2210.77 222.626C2210.77 227.915 2216.06 228.396 2224.23 232.243C2238.65 238.493 2246.83 252.438 2253.08 269.748C2262.7 293.789 2264.62 298.598 2272.31 298.598C2279.04 298.598 2274.24 290.904 2281.93 289.943C2290.1 289.462 2295.39 293.789 2295.87 303.887C2297.8 342.353 2278.08 376.012 2232.4 376.012ZM2134.79 188.006C2163.16 188.006 2171.34 179.351 2170.86 158.675C2170.38 130.787 2154.03 110.111 2113.64 110.111C2086.23 110.592 2091.04 108.668 2091.04 153.867C2091.04 190.41 2086.71 188.487 2134.79 188.006Z" fill="black"/>
<path d="M1637.13 486.603C1590.49 486.603 1548.17 467.851 1548.17 422.653C1548.17 399.573 1562.12 379.378 1593.37 379.378C1623.67 379.378 1635.21 393.803 1643.86 415.44C1647.23 424.576 1650.59 432.75 1662.61 432.75C1672.71 432.75 1681.37 422.172 1687.14 392.36C1690.5 369.28 1690.02 367.357 1660.21 361.587C1621.74 354.374 1622.22 349.085 1609.24 313.023C1598.18 283.692 1588.56 253.399 1573.18 213.49C1565.48 193.776 1562.12 190.41 1552.98 183.198C1542.4 175.023 1540.96 168.292 1540.96 150.02C1540.96 123.574 1550.1 118.766 1613.57 118.766C1684.25 118.766 1692.91 123.093 1692.91 156.752C1692.91 168.292 1689.54 171.658 1682.33 177.908C1674.63 183.678 1672.23 188.006 1674.63 197.623C1677.52 212.528 1689.06 250.995 1697.71 275.518C1702.04 289.462 1703.96 293.789 1708.77 293.789C1716.47 293.789 1715.5 288.019 1719.35 275.518C1728.01 249.072 1735.22 225.03 1740.51 205.316C1743.87 192.333 1742.43 185.602 1729.45 177.908C1718.87 171.177 1715.99 163.964 1715.99 146.654C1715.99 124.055 1724.16 119.247 1784.26 119.247C1828.5 119.247 1831.87 127.421 1831.87 157.713C1831.87 167.811 1828.98 174.062 1821.77 180.313C1812.15 189.448 1813.11 189.448 1809.27 198.584C1802.54 216.856 1768.88 319.754 1750.12 378.416C1727.04 452.464 1705.89 486.603 1637.13 486.603Z" fill="black"/>
<path d="M1404.48 381.301C1321.3 381.301 1264.08 328.409 1264.08 253.399C1264.08 174.543 1316.97 111.553 1405.92 111.553C1477.57 111.553 1530.46 156.752 1530.46 232.723C1530.46 262.054 1524.69 265.42 1486.22 265.42H1367.46C1362.17 265.42 1359.28 266.863 1359.28 272.633C1358.8 293.789 1390.06 308.214 1429.48 308.214C1457.85 308.214 1475.16 302.444 1487.66 298.117C1493.92 295.713 1500.65 293.789 1504.97 293.789C1516.03 293.789 1517.96 306.291 1514.59 320.235C1505.46 358.702 1460.26 381.301 1404.48 381.301ZM1375.15 219.741C1429 219.741 1433.81 218.779 1433.33 210.124C1433.33 188.968 1415.54 171.177 1392.94 171.658C1372.26 171.658 1358.8 189.448 1359.76 213.49C1359.76 219.26 1362.65 219.741 1375.15 219.741Z" fill="black"/>
<path d="M1172.84 374.569C1106.97 374.569 1096.87 374.088 1096.87 339.949C1096.87 323.601 1097.83 316.869 1112.25 307.733C1124.27 300.521 1126.2 293.789 1127.64 275.518C1129.08 253.88 1128.6 221.664 1128.6 200.508C1128.6 171.177 1128.12 121.651 1127.64 102.417C1127.16 87.5117 1125.72 86.55 1109.37 85.1075C1092.06 83.1842 1084.85 78.3758 1084.85 66.8358C1084.85 52.4108 1094.46 38.9475 1110.33 25.965C1124.27 13.4633 1147.84 3.36584 1174.28 3.36584C1204.09 3.36584 1225.25 16.8292 1225.25 49.5258C1225.25 62.0275 1222.85 91.8392 1221.88 134.153C1220.92 170.215 1218.52 242.821 1219.96 279.845C1220.44 293.789 1221.88 299.078 1231.98 305.81C1244 313.503 1246.89 319.754 1246.89 336.583C1246.89 368.799 1241.12 374.569 1172.84 374.569Z" fill="black"/>
<path d="M878.272 380.82C866.732 380.82 860.962 374.569 849.422 355.817C837.882 336.583 834.035 329.852 834.035 320.716C834.035 312.061 840.767 304.848 849.903 298.117C866.251 285.615 875.868 287.538 906.16 304.848C927.798 317.831 950.878 326.005 969.63 326.005C981.651 326.005 987.902 321.197 987.902 312.061C987.902 300.521 977.324 297.155 951.359 290.904C926.355 285.134 879.234 275.998 860 255.803C847.499 242.34 838.844 224.549 838.844 201.469C838.844 144.731 888.85 112.515 935.491 112.515C958.09 112.515 973.477 118.285 986.459 125.017C992.71 128.383 998.961 132.71 1004.73 132.71C1015.79 132.71 1010.5 112.034 1031.66 112.034C1045.12 112.034 1048.97 119.247 1060.99 138.48C1073.49 157.233 1076.86 166.368 1076.86 174.543C1076.86 182.236 1072.05 188.006 1065.8 193.776C1048.97 208.201 1039.83 206.758 1007.62 188.487C986.459 176.466 959.533 166.849 941.261 166.849C929.24 166.849 921.066 173.1 921.066 183.198C921.066 191.372 927.317 194.738 949.435 198.584C1013.87 210.605 1035.02 217.818 1054.26 236.57C1068.2 250.995 1075.89 266.863 1075.89 293.308C1075.89 351.008 1027.33 379.858 974.919 379.858C953.282 379.858 937.414 374.088 924.432 367.838C916.738 364.472 911.93 359.663 905.679 359.663C894.139 359.663 899.909 380.82 878.272 380.82Z" fill="black"/>
<path d="M687.456 381.301C604.272 381.301 547.053 328.409 547.053 253.399C547.053 174.543 599.944 111.553 688.899 111.553C760.543 111.553 813.434 156.752 813.434 232.723C813.434 262.054 807.664 265.42 769.198 265.42H650.432C645.143 265.42 642.258 266.863 642.258 272.633C641.777 293.789 673.031 308.214 712.459 308.214C740.829 308.214 758.139 302.444 770.64 298.117C776.891 295.713 783.623 293.789 787.95 293.789C799.009 293.789 800.933 306.291 797.567 320.235C788.431 358.702 743.233 381.301 687.456 381.301ZM658.125 219.741C711.979 219.741 716.787 218.779 716.306 210.124C716.306 188.968 698.515 171.177 675.916 171.658C655.24 171.658 641.777 189.448 642.739 213.49C642.739 219.26 645.624 219.741 658.125 219.741Z" fill="black"/>
<path d="M163.003 377.935C112.034 377.935 105.783 378.897 93.2817 337.545C73.0867 275.998 50.9683 212.048 35.1008 157.233C27.8883 132.229 25.0033 127.902 11.54 118.766C1.4425 111.553 0 104.822 0 89.435C0 51.93 5.77 47.1217 93.7625 47.1217C163.003 47.1217 173.1 51.93 173.1 80.78C173.1 107.226 169.734 110.592 160.598 115.4C149.539 121.651 148.097 125.498 151.463 139.442C156.752 161.079 171.658 208.201 180.313 239.455C183.198 251.957 183.678 259.169 190.41 259.169C198.584 259.169 199.546 251.476 202.912 237.532C212.528 202.912 221.183 168.292 228.396 142.327C232.243 124.536 231.281 120.689 220.222 114.919C209.163 109.149 206.758 103.379 206.758 86.0692C206.758 52.4109 212.048 47.1217 290.904 47.1217C362.548 47.1217 372.646 51.93 372.646 80.2992C372.646 103.86 370.242 108.668 360.144 115.4C351.97 121.17 350.528 123.093 354.374 140.403C361.106 165.407 370.723 202.431 380.339 233.204C384.186 249.072 384.667 258.208 391.879 258.208C401.015 258.208 400.053 250.514 403.9 235.608C415.44 196.18 423.133 161.079 426.98 141.846C430.827 122.613 430.827 121.651 417.844 113.958C404.381 107.226 401.977 101.937 401.977 83.1842C401.977 52.8917 409.189 47.1217 478.91 47.1217C525.07 47.1217 531.802 52.8917 531.802 81.2609C531.802 106.264 527.955 108.668 513.049 118.285C503.913 124.536 503.433 127.421 498.624 146.654C488.046 187.044 471.217 248.11 444.29 339.468C434.193 377.454 426.018 377.935 376.493 377.935C329.852 377.935 321.678 377.935 308.214 337.064C291.866 288.019 278.883 250.514 273.594 230.8C271.671 222.145 271.19 217.818 265.901 217.818C259.169 217.818 259.169 224.068 257.727 229.838C248.11 263.978 236.57 302.925 225.511 337.064C214.452 377.935 209.643 377.935 163.003 377.935Z" fill="black"/>
</svg>